<?xml version="1.0" standalone="no"?>
<!DOCTYPE svg PUBLIC "-//W3C//DTD SVG 20010904//EN"
 "http://www.w3.org/TR/2001/REC-SVG-20010904/DTD/svg10.dtd">
<svg version="1.0" xmlns="http://www.w3.org/2000/svg"
 width="560.000000pt" height="314.000000pt" viewBox="0 0 560.000000 314.000000"
 preserveAspectRatio="xMidYMid meet">
<metadata>
Created by potrace 1.16, written by Peter Selinger 2001-2019
</metadata>
<g transform="translate(0.000000,314.000000) scale(0.100000,-0.100000)"
fill="#000000" stroke="none">
<path d="M1398 3133 c771 -2 2033 -2 2805 0 771 1 140 2 -1403 2 -1543 0
-2174 -1 -1402 -2z"/>
<path d="M1950 2544 c-252 -113 -1299 -566 -1417 -613 l-33 -13 0 -89 c0 -49
2 -89 4 -89 6 0 885 382 1430 621 l158 70 127 -55 c69 -30 205 -87 301 -126
96 -40 285 -119 420 -175 294 -123 623 -260 703 -291 l57 -23 0 89 0 89 -52
19 c-29 11 -165 67 -303 125 -137 58 -362 151 -500 207 -137 56 -363 149 -502
206 -138 57 -255 104 -260 104 -4 0 -64 -25 -133 -56z"/>
<path d="M3835 2259 c-148 -78 -286 -149 -305 -159 l-34 -18 72 -36 72 -36
230 120 c126 66 234 120 240 120 7 0 109 -48 228 -106 120 -59 291 -141 382
-184 91 -43 221 -105 290 -139 69 -33 129 -61 133 -61 4 0 7 30 5 67 -3 60 -6
69 -28 80 -21 11 -451 220 -910 441 -52 25 -97 47 -100 49 -3 1 -126 -61 -275
-138z"/>
<path d="M4672 1743 c3 -21 1 -49 -4 -62 -6 -16 -4 -30 6 -46 11 -16 13 -42 9
-101 -5 -70 -2 -86 21 -138 29 -66 34 -121 11 -130 -8 -3 -15 -13 -15 -22 0
-9 -21 -39 -46 -66 -75 -80 -89 -122 -89 -263 0 -111 2 -124 28 -177 33 -67
80 -111 157 -147 47 -22 69 -26 150 -26 84 0 102 3 152 28 55 27 128 97 128
123 0 7 -29 28 -64 46 l-63 34 -34 -37 c-47 -51 -102 -65 -174 -44 -60 17 -98
56 -110 112 l-7 33 234 2 233 3 0 100 c-1 82 -5 107 -22 140 -24 45 -62 83
-111 113 l-33 20 34 21 c63 38 73 103 31 195 -28 62 -26 88 12 113 19 12 22
19 13 29 -17 20 -37 17 -64 -11 -31 -30 -33 -85 -5 -146 23 -51 25 -106 6
-131 -7 -10 -15 -18 -18 -18 -3 0 -5 26 -4 58 1 85 -35 154 -118 227 l-66 59
0 69 c0 62 -2 68 -17 61 -10 -4 -41 -9 -69 -12 -37 -3 -54 0 -63 12 -22 27
-33 18 -29 -21z m294 -628 c31 -20 64 -73 64 -102 0 -23 0 -23 -147 -18 -146
5 -148 5 -145 28 4 33 55 90 93 104 42 16 101 10 135 -12z"/>
<path d="M1230 1586 c0 -40 -122 -65 -150 -31 -11 13 -45 15 -228 13 l-216 -3
-72 -85 c-40 -47 -73 -91 -74 -97 0 -10 38 -13 160 -13 l160 0 0 -390 0 -390
93 0 94 0 2 392 c1 216 3 393 4 394 1 2 49 0 105 -3 97 -6 104 -7 113 -29 8
-22 15 -24 69 -24 l60 0 0 140 0 140 -60 0 c-46 0 -60 -3 -60 -14z"/>
<path d="M3517 1513 c-4 -3 -7 -215 -7 -470 l0 -463 85 0 85 0 2 321 3 321
134 -191 c73 -105 138 -194 144 -198 13 -8 34 18 165 209 59 86 110 157 115
158 4 0 7 -139 7 -310 l0 -310 85 0 85 0 0 470 0 470 -79 0 -79 0 -112 -162
c-144 -207 -174 -248 -182 -245 -8 3 -70 87 -188 257 -52 74 -99 138 -104 142
-14 10 -150 10 -159 1z"/>
<path d="M3060 1356 c0 -48 -3 -57 -31 -80 -17 -14 -41 -26 -55 -26 -23 0 -24
-3 -24 -70 l0 -70 55 0 55 0 0 -142 c1 -253 20 -320 104 -369 46 -26 60 -29
139 -29 l88 0 -3 73 -3 72 -59 5 c-96 9 -110 46 -104 270 l3 115 78 3 77 3 0
69 0 69 -77 3 -78 3 -3 78 -3 77 -79 0 -80 0 0 -54z"/>
<path d="M1464 1241 c-22 -10 -50 -31 -62 -46 -12 -15 -22 -24 -23 -19 -1 5
-2 16 -3 24 -2 8 -3 23 -4 33 -2 16 -11 18 -74 15 l-73 -3 -3 -332 -2 -333 85
0 85 0 0 205 c0 186 2 210 20 245 29 56 62 75 135 76 67 1 61 -11 57 104 l-2
50 -47 0 c-27 0 -66 -9 -89 -19z"/>
<path d="M2520 1245 c-139 -44 -185 -215 -86 -323 30 -34 78 -56 174 -82 98
-26 132 -50 132 -90 0 -41 -32 -60 -100 -60 -69 0 -115 26 -137 78 -8 20 -17
39 -19 41 -7 7 -123 -53 -123 -64 -1 -6 14 -35 32 -65 39 -67 110 -107 202
-116 203 -21 344 118 280 273 -30 72 -58 90 -202 133 -105 32 -133 50 -133 89
0 32 8 44 37 60 56 29 145 0 171 -58 9 -20 17 -37 18 -39 1 -2 115 56 122 63
9 9 -42 87 -75 114 -69 57 -194 77 -293 46z"/>
<path d="M1672 987 c3 -259 3 -263 29 -312 62 -122 245 -155 361 -64 l37 29 3
-33 3 -32 70 0 70 0 3 338 2 337 -85 0 -85 0 0 -231 c0 -257 -4 -274 -66 -304
-45 -21 -86 -19 -125 8 -52 35 -58 65 -58 310 l-1 217 -80 0 -81 0 3 -263z"/>
<path d="M1398 3 c771 -2 2033 -2 2805 0 771 1 140 2 -1403 2 -1543 0 -2174
-1 -1402 -2z"/>
</g>
</svg>
