<?xml version="1.0" standalone="no"?>
<!DOCTYPE svg PUBLIC "-//W3C//DTD SVG 20010904//EN"
 "http://www.w3.org/TR/2001/REC-SVG-20010904/DTD/svg10.dtd">
<svg version="1.0" xmlns="http://www.w3.org/2000/svg"
 width="302.000000pt" height="312.000000pt" viewBox="0 0 302.000000 312.000000"
 preserveAspectRatio="xMidYMid meet">
<metadata>
Created by potrace 1.16, written by Peter Selinger 2001-2019
</metadata>
<g transform="translate(0.000000,312.000000) scale(0.100000,-0.100000)"
fill="#000000" stroke="none">
<path d="M3015 1560 c0 -861 1 -1213 2 -782 2 430 2 1134 0 1565 -1 430 -2 78
-2 -783z"/>
<path d="M460 2986 c-171 -37 -308 -177 -345 -353 -22 -104 -22 -2059 0 -2152
41 -173 167 -299 346 -346 82 -22 2008 -22 2092 0 178 46 313 188 348 365 7
38 8 372 3 1090 -6 951 -8 1040 -24 1092 -47 152 -181 273 -338 307 -77 16
-2006 14 -2082 -3z m1713 -691 c1 -22 0 -118 -1 -212 l-2 -173 -94 0 c-92 0
-94 1 -100 25 -12 49 -39 56 -207 53 l-154 -3 -3 -597 -2 -598 -140 0 -140 0
-2 596 -3 596 -243 3 c-134 2 -246 6 -249 9 -11 11 89 148 162 222 l70 72 325
5 c291 4 326 3 337 -12 30 -40 34 -41 123 -41 84 0 90 1 109 26 12 15 21 38
21 51 0 24 0 24 97 21 l96 -3 0 -40z"/>
</g>
</svg>
